<svg xmlns="http://www.w3.org/2000/svg" xmlns:xlink="http://www.w3.org/1999/xlink" width="1584" zoomAndPan="magnify" viewBox="0 0 1188 296.999993" height="396" preserveAspectRatio="xMidYMid meet" version="1.0"><defs><g/></defs><g fill="#ffffff" fill-opacity="1"><g transform="translate(831.267488, 207.898201)"><g/></g></g><g fill="#ffffff" fill-opacity="1"><g transform="translate(918.525809, 207.898201)"><g><path d="M 97.21875 0.234375 L 97.21875 -24.015625 L 35.578125 -24.015625 C 33.015625 -24.015625 31.734375 -25.984375 31.734375 -29.921875 L 31.734375 -52.125 C 31.734375 -55.445312 33.617188 -57.109375 37.390625 -57.109375 L 96.3125 -57.109375 L 96.3125 -102.65625 C 96.3125 -105.226562 95.328125 -107.492188 93.359375 -109.453125 C 91.398438 -111.421875 88.835938 -112.40625 85.671875 -112.40625 L 4.984375 -112.40625 L 4.984375 -89.0625 L 63.90625 -89.0625 C 66.019531 -89.0625 67.304688 -88.382812 67.765625 -87.03125 C 68.066406 -86.425781 68.21875 -84.535156 68.21875 -81.359375 L 15.1875 -81.359375 C 8.382812 -81.359375 4.984375 -77.050781 4.984375 -68.4375 L 4.984375 -7.03125 C 4.984375 -2.1875 7.550781 0.234375 12.6875 0.234375 L 30.828125 0.234375 C 26.742188 2.191406 24.703125 4.984375 24.703125 8.609375 L 24.703125 29.6875 C 24.703125 32.257812 26.140625 34.453125 29.015625 36.265625 C 31.429688 37.921875 33.921875 38.75 36.484375 38.75 L 102.4375 38.75 L 102.4375 14.5 L 58.703125 14.5 C 56.578125 14.5 55.25 14.234375 54.71875 13.703125 C 54.195312 13.179688 53.9375 12.015625 53.9375 10.203125 C 53.9375 4.910156 55.75 1.585938 59.375 0.234375 Z M 97.21875 0.234375 "/></g></g></g><g fill="#ffffff" fill-opacity="1"><g transform="translate(1027.306277, 207.898201)"><g><path d="M -118.984375 -114.453125 L -92.234375 -114.453125 L -92.234375 -121.46875 C -92.234375 -122.976562 -91.96875 -123.957031 -91.4375 -124.40625 C -90.914062 -124.863281 -89.820312 -125.09375 -88.15625 -125.09375 L -67.984375 -125.09375 L -67.984375 -121.015625 C -67.984375 -119.503906 -67.078125 -118.066406 -65.265625 -116.703125 C -63.453125 -115.347656 -61.566406 -114.671875 -59.609375 -114.671875 L -19.9375 -114.671875 C -11.175781 -114.671875 -6.796875 -117.921875 -6.796875 -124.421875 L -6.796875 -134.84375 C -6.796875 -137.707031 -8.078125 -140.082031 -10.640625 -141.96875 C -13.210938 -143.863281 -16.3125 -144.8125 -19.9375 -144.8125 L -106.96875 -144.8125 C -109.832031 -144.8125 -112.550781 -143.675781 -115.125 -141.40625 C -117.695312 -139.144531 -118.984375 -136.503906 -118.984375 -133.484375 Z M -46.234375 -127.59375 C -46.234375 -128.644531 -45.550781 -129.171875 -44.1875 -129.171875 L -31.953125 -129.171875 C -30.597656 -129.171875 -29.921875 -128.644531 -29.921875 -127.59375 L -29.921875 -123.734375 C -29.921875 -122.679688 -30.597656 -122.15625 -31.953125 -122.15625 L -43.96875 -122.15625 C -45.476562 -122.15625 -46.234375 -122.609375 -46.234375 -123.515625 Z M -46.234375 -127.59375 "/></g></g></g><g fill="#ffffff" fill-opacity="1"><g transform="translate(1032.745336, 207.898201)"><g><path d="M 4.765625 -112.625 L 4.765625 -89.296875 L 43.515625 -89.296875 C 46.535156 -89.296875 48.046875 -86.722656 48.046875 -81.578125 L 13.375 -81.578125 C 11.257812 -81.578125 9.332031 -80.820312 7.59375 -79.3125 C 5.851562 -77.800781 4.984375 -75.914062 4.984375 -73.65625 L 4.984375 -7.25 C 4.984375 -2.414062 7.476562 0 12.46875 0 L 109.90625 0 C 114.75 0 117.171875 -2.71875 117.171875 -8.15625 L 117.171875 -73.65625 C 117.171875 -78.9375 114.75 -81.578125 109.90625 -81.578125 L 72.96875 -81.578125 C 72.96875 -84.453125 73.234375 -86.457031 73.765625 -87.59375 C 74.296875 -88.726562 75.617188 -89.296875 77.734375 -89.296875 L 117.171875 -89.296875 L 117.171875 -112.625 L 70.9375 -112.625 C 67.457031 -112.625 64.660156 -110.738281 62.546875 -106.96875 C 58.160156 -110.738281 55.363281 -112.625 54.15625 -112.625 Z M 31.28125 -53.484375 C 31.28125 -56.054688 33.015625 -57.34375 36.484375 -57.34375 L 86.125 -57.34375 C 89.144531 -57.34375 90.65625 -56.054688 90.65625 -53.484375 L 90.65625 -29.6875 C 90.65625 -26.0625 89.144531 -24.25 86.125 -24.25 L 35.359375 -24.25 C 32.640625 -24.25 31.28125 -26.140625 31.28125 -29.921875 Z M 31.28125 -53.484375 "/></g></g></g><g fill="#ffffff" fill-opacity="1"><g transform="translate(42.814139, 209.823142)"><g><path d="M 14.109375 0 L 20.5625 -30.25 L 2.015625 -30.25 L 2.015625 -56.46875 L 26.21875 -56.46875 L 32.265625 -84.703125 L 10.078125 -84.703125 L 10.078125 -110.90625 L 37.90625 -110.90625 L 44.359375 -141.15625 L 76.625 -141.15625 L 70.171875 -110.90625 L 94.375 -110.90625 L 100.828125 -141.15625 L 133.09375 -141.15625 L 126.640625 -110.90625 L 145.1875 -110.90625 L 145.1875 -84.703125 L 121 -84.703125 L 114.9375 -56.46875 L 137.125 -56.46875 L 137.125 -30.25 L 109.296875 -30.25 L 102.84375 0 L 70.578125 0 L 77.03125 -30.25 L 52.828125 -30.25 L 46.375 0 Z M 58.484375 -56.46875 L 82.671875 -56.46875 L 88.734375 -84.703125 L 64.53125 -84.703125 Z M 58.484375 -56.46875 "/></g></g></g><g fill="#ffffff" fill-opacity="1"><g transform="translate(190.027493, 209.823142)"><g><path d="M 81.671875 -74.609375 C 81.671875 -76.628906 81 -78.3125 79.65625 -79.65625 C 78.3125 -81 76.628906 -81.671875 74.609375 -81.671875 L 69.578125 -81.671875 C 63.929688 -81.671875 59.054688 -81.398438 54.953125 -80.859375 C 50.847656 -80.328125 47.65625 -79.925781 45.375 -79.65625 L 45.375 -27.21875 L 73.609375 -27.21875 C 78.984375 -27.21875 81.671875 -29.910156 81.671875 -35.296875 Z M 45.375 -104.859375 C 58.414062 -107.546875 69.84375 -108.890625 79.65625 -108.890625 L 86.71875 -108.890625 C 95.851562 -108.890625 103.175781 -106.132812 108.6875 -100.625 C 114.195312 -95.113281 116.953125 -87.785156 116.953125 -78.640625 L 116.953125 -32.265625 C 116.953125 -22.179688 114.09375 -14.28125 108.375 -8.5625 C 102.664062 -2.851562 94.773438 0 84.703125 0 L 10.078125 0 L 10.078125 -141.15625 L 45.375 -141.15625 Z M 45.375 -104.859375 "/></g></g></g><g fill="#ffffff" fill-opacity="1"><g transform="translate(315.058005, 209.823142)"><g><path d="M 54.453125 -102.84375 L 54.453125 0 L 19.15625 0 L 19.15625 -75.625 L 4.03125 -75.625 L 4.03125 -102.84375 Z M 19.15625 -143.171875 L 54.453125 -143.171875 L 54.453125 -114.9375 L 19.15625 -114.9375 Z M 19.15625 -143.171875 "/></g></g></g><g fill="#ffffff" fill-opacity="1"><g transform="translate(379.589879, 209.823142)"><g><path d="M 84.703125 0 C 71.660156 1.34375 58.882812 2.015625 46.375 2.015625 C 37.238281 2.015625 29.910156 -0.738281 24.390625 -6.25 C 18.878906 -11.757812 16.125 -19.085938 16.125 -28.234375 L 16.125 -79.65625 L 4.03125 -79.65625 L 4.03125 -106.875 L 16.125 -106.875 L 20.171875 -131.078125 L 51.421875 -131.078125 L 51.421875 -106.875 L 76.625 -106.875 L 76.625 -79.65625 L 51.421875 -79.65625 L 51.421875 -33.265625 C 51.421875 -31.253906 52.09375 -29.578125 53.4375 -28.234375 C 54.78125 -26.890625 56.460938 -26.21875 58.484375 -26.21875 L 84.703125 -26.21875 Z M 84.703125 0 "/></g></g></g><g fill="#ffffff" fill-opacity="1"><g transform="translate(468.321245, 209.823142)"><g><path d="M 104.859375 -2.015625 C 79.722656 0.671875 57.539062 2.015625 38.3125 2.015625 C 29.175781 2.015625 21.847656 -0.738281 16.328125 -6.25 C 10.816406 -11.757812 8.0625 -19.085938 8.0625 -28.234375 L 8.0625 -74.609375 C 8.0625 -84.691406 10.914062 -92.585938 16.625 -98.296875 C 22.34375 -104.015625 30.242188 -106.875 40.328125 -106.875 L 104.859375 -106.875 L 104.859375 -79.65625 L 51.421875 -79.65625 C 46.046875 -79.65625 43.359375 -76.96875 43.359375 -71.59375 L 43.359375 -32.265625 C 43.359375 -30.242188 44.03125 -28.5625 45.375 -27.21875 C 46.71875 -25.875 48.398438 -25.203125 50.421875 -25.203125 C 62.515625 -25.203125 80.660156 -26.210938 104.859375 -28.234375 Z M 104.859375 -2.015625 "/></g></g></g><g fill="#ffffff" fill-opacity="1"><g transform="translate(579.235402, 209.823142)"><g><path d="M 118.984375 -30.25 C 118.984375 -20.164062 116.125 -12.265625 110.40625 -6.546875 C 104.695312 -0.835938 96.800781 2.015625 86.71875 2.015625 L 40.328125 2.015625 C 30.242188 2.015625 22.34375 -0.835938 16.625 -6.546875 C 10.914062 -12.265625 8.0625 -20.164062 8.0625 -30.25 L 8.0625 -76.625 C 8.0625 -86.707031 10.914062 -94.601562 16.625 -100.3125 C 22.34375 -106.03125 30.242188 -108.890625 40.328125 -108.890625 L 86.71875 -108.890625 C 96.800781 -108.890625 104.695312 -106.03125 110.40625 -100.3125 C 116.125 -94.601562 118.984375 -86.707031 118.984375 -76.625 Z M 83.6875 -73.609375 C 83.6875 -78.984375 81 -81.671875 75.625 -81.671875 L 51.421875 -81.671875 C 46.046875 -81.671875 43.359375 -78.984375 43.359375 -73.609375 L 43.359375 -33.265625 C 43.359375 -27.890625 46.046875 -25.203125 51.421875 -25.203125 L 75.625 -25.203125 C 81 -25.203125 83.6875 -27.890625 83.6875 -33.265625 Z M 83.6875 -73.609375 "/></g></g></g><g fill="#ffffff" fill-opacity="1"><g transform="translate(706.2825, 209.823142)"><g><path d="M 54.453125 -102.84375 L 54.453125 0 L 19.15625 0 L 19.15625 -75.625 L 4.03125 -75.625 L 4.03125 -102.84375 Z M 19.15625 -143.171875 L 54.453125 -143.171875 L 54.453125 -114.9375 L 19.15625 -114.9375 Z M 19.15625 -143.171875 "/></g></g></g><g fill="#ffffff" fill-opacity="1"><g transform="translate(770.814391, 209.823142)"><g><path d="M 69.578125 -79.65625 C 62.453125 -79.65625 54.382812 -78.3125 45.375 -75.625 L 45.375 0 L 10.078125 0 L 10.078125 -106.875 L 41.34375 -106.875 L 43.359375 -96.796875 C 49.671875 -100.960938 56.15625 -104.019531 62.8125 -105.96875 C 69.46875 -107.914062 75.082031 -108.890625 79.65625 -108.890625 L 88.734375 -108.890625 C 97.867188 -108.890625 105.191406 -106.132812 110.703125 -100.625 C 116.222656 -95.113281 118.984375 -87.785156 118.984375 -78.640625 L 118.984375 0 L 83.6875 0 L 83.6875 -72.59375 C 83.6875 -74.613281 83.015625 -76.296875 81.671875 -77.640625 C 80.328125 -78.984375 78.644531 -79.65625 76.625 -79.65625 Z M 69.578125 -79.65625 "/></g></g></g></svg>